# xmcd CD database file
#
# Track frame offsets:
#	150
#	18690
#	36607
#	56614
#	75755
#	92988
#	115628
#	132935
#	150179
#	152943
#	172168
#	192159
#	218951
#	237522
#	258970
#
# Disc length: 3720 seconds
#
# Revision: 1
# Processed by: cddbd v1.5.2PL0 Copyright (c) Steve Scherf et al.
# Submitted via: CDex 1.51
#
DISCID=c80e860f
DTITLE=Don-E - Natural
DYEAR=2008
DGENRE=Neo Soul
TTITLE0=Addictive Luv
TTITLE1=Love Shine In
TTITLE2=Kool
TTITLE3=Stay A While
TTITLE4=Writing's On The Wall  (featuring Keisha Buchanan)
TTITLE5=Waiting In Vain
TTITLE6=You and I
TTITLE7=Get Off
TTITLE8=E-scape  (Interlude)
TTITLE9=Drive
TTITLE10=Like I Like It  (featuring Kele Le Roc)
TTITLE11=So Cold  (Azure, with D'Angelo on Rhodes)
TTITLE12=Holla At Me !
TTITLE13=Natural
TTITLE14=The Time Is Now  (featuring Mutya Buena)
EXTD=YEAR: 2008
EXTT0=
EXTT1=
EXTT2=
EXTT3=
EXTT4=
EXTT5=
EXTT6=
EXTT7=
EXTT8=
EXTT9=
EXTT10=
EXTT11=
EXTT12=
EXTT13=
EXTT14=
PLAYORDER=
